<svg xmlns="http://www.w3.org/2000/svg" viewBox="0 0 32 32"><defs><linearGradient id="g" x1="0" y1="0" x2="1" y2="1"><stop offset="0" stop-color="#8788fb"/><stop offset="0.55" stop-color="#5b4ce4"/><stop offset="1" stop-color="#3e34a1"/></linearGradient></defs><rect width="32" height="32" rx="9" fill="url(#g)"/><path d="M11.5 8.5c.8 0 1.4.4 1.7 1.1l1.3 3a1.8 1.8 0 0 1-.4 2l-1.3 1.2a10 10 0 0 0 4.4 4.4l1.2-1.3a1.8 1.8 0 0 1 2-.4l3 1.3c.7.3 1.1.9 1.1 1.7v2.2c0 1.1-.9 1.9-2 1.8C14.4 25 7 17.6 6.5 9.5c-.1-1.1.7-2 1.8-2h3.2Z" fill="#fff"/><circle cx="25" cy="7" r="3.2" fill="#34d399" stroke="#4c3dc8" stroke-width="1.4"/></svg>
